<svg data-v-fde0c5aa="" xmlns="http://www.w3.org/2000/svg" viewBox="0 0 300 300" class="iconAbove"><!----><defs data-v-fde0c5aa=""><!----></defs><rect data-v-fde0c5aa="" fill="#F3F6EF" x="0" y="0" width="300px" height="300px" class="logo-background-square"></rect><defs data-v-fde0c5aa=""><!----></defs><g data-v-fde0c5aa="" id="f9d6cfa2-a580-4ac4-aebe-76b6f59c0b42" fill="#1E2314" transform="matrix(3.0116992295310316,0,0,3.0116992295310316,16.145025072365712,184.795202637174)"><path d="M3.92 5.74C3.34 5.74 2.80 5.93 2.36 6.25L2.36 0L1.28 0L1.28 12.88L2.36 12.88L2.36 8.40C2.36 7.51 3.06 6.83 3.92 6.83C4.78 6.83 5.50 7.51 5.50 8.40L5.50 12.88L6.56 12.88L6.56 8.40C6.56 6.91 5.39 5.74 3.92 5.74ZM12.18 13.02C14.19 13.02 15.82 11.39 15.82 9.38C15.82 7.37 14.19 5.74 12.18 5.74C10.17 5.74 8.54 7.37 8.54 9.38C8.54 11.39 10.17 13.02 12.18 13.02ZM12.18 11.94C10.76 11.94 9.63 10.80 9.63 9.38C9.63 7.96 10.76 6.83 12.18 6.83C13.58 6.83 14.74 7.96 14.74 9.38C14.74 10.80 13.58 11.94 12.18 11.94ZM21.25 5.88L19.37 5.88L19.37 2.12C19.37 1.47 19.86 1.05 20.42 1.05L21.23 1.07L21.23 0.23C21.04 0.11 20.65 0 20.30 0C19.22 0 18.29 0.88 18.29 1.98L18.29 5.88L17.12 5.88L17.12 6.93L18.29 6.93L18.29 12.88L19.37 12.88L19.37 6.93L21.25 6.93ZM26.07 5.88L24.20 5.88L24.20 2.12C24.20 1.47 24.69 1.05 25.25 1.05L26.06 1.07L26.06 0.23C25.87 0.11 25.48 0 25.13 0C24.05 0 23.12 0.88 23.12 1.98L23.12 5.88L21.95 5.88L21.95 6.93L23.12 6.93L23.12 12.88L24.20 12.88L24.20 6.93L26.07 6.93ZM30.33 5.74C29.68 5.74 29.08 6.00 28.63 6.44L28.63 5.88L27.54 5.88L27.54 12.88L28.63 12.88L28.63 8.42C28.63 7.53 29.35 6.83 30.24 6.83C31.13 6.83 31.83 7.53 31.83 8.42L31.83 12.88L32.92 12.88L32.92 8.42C32.92 6.93 31.67 5.74 30.33 5.74ZM37.78 13.02C39.34 13.02 40.41 11.99 40.41 10.36L40.41 5.88L39.34 5.88L39.34 10.24C39.34 11.29 38.69 11.94 37.78 11.94C36.89 11.94 36.23 11.29 36.23 10.24L36.23 5.88L35.16 5.88L35.16 10.36C35.16 11.99 36.21 13.02 37.78 13.02ZM45.50 5.74C44.85 5.74 44.26 6.00 43.80 6.44L43.80 5.88L42.72 5.88L42.72 12.88L43.80 12.88L43.80 8.42C43.80 7.53 44.52 6.83 45.41 6.83C46.31 6.83 47.01 7.53 47.01 8.42L47.01 12.88L48.09 12.88L48.09 8.42C48.09 6.93 46.85 5.74 45.50 5.74ZM56.25 5.88L56.25 6.75C55.60 6.13 54.69 5.74 53.71 5.74C51.70 5.74 50.07 7.35 50.07 9.38C50.07 11.39 51.70 13.02 53.71 13.02C54.71 13.02 55.60 12.62 56.26 11.97L56.26 13.49C56.26 14.89 55.11 16.05 53.71 16.05C52.57 16.05 51.61 15.30 51.28 14.28L50.28 14.72C50.79 16.14 52.13 17.13 53.71 17.13C55.72 17.13 57.35 15.51 57.35 13.49L57.35 5.88ZM53.71 11.94C52.29 11.94 51.15 10.78 51.15 9.38C51.15 7.96 52.29 6.83 53.71 6.83C55.11 6.83 56.26 7.96 56.26 9.38C56.26 10.78 55.11 11.94 53.71 11.94ZM59.90 12.88L60.99 12.88L60.99 0L59.90 0ZM71.05 11.97C70.67 11.97 70.33 11.71 70.33 11.06L70.33 5.88L69.25 5.88L69.25 6.79C68.60 6.14 67.69 5.74 66.69 5.74C64.68 5.74 63.05 7.37 63.05 9.38C63.05 11.39 64.68 13.02 66.69 13.02C67.74 13.02 68.69 12.53 69.35 11.81C69.58 12.53 70.14 13.02 70.96 13.02C71.16 13.02 71.35 12.97 71.49 12.88L71.49 11.97ZM66.69 11.94C65.28 11.94 64.14 10.80 64.14 9.38C64.14 7.96 65.28 6.83 66.69 6.83C68.09 6.83 69.25 7.96 69.25 9.38C69.25 10.80 68.09 11.94 66.69 11.94ZM75.76 5.74C75.11 5.74 74.52 6.00 74.06 6.44L74.06 5.88L72.98 5.88L72.98 12.88L74.06 12.88L74.06 8.42C74.06 7.53 74.78 6.83 75.67 6.83C76.56 6.83 77.26 7.53 77.26 8.42L77.26 12.88L78.35 12.88L78.35 8.42C78.35 6.93 77.11 5.74 75.76 5.74ZM86.52 0L86.52 6.79C85.86 6.14 84.96 5.74 83.97 5.74C81.95 5.74 80.33 7.37 80.33 9.38C80.33 11.39 81.95 13.02 83.97 13.02C84.96 13.02 85.86 12.62 86.52 11.97L86.52 12.88L87.61 12.88L87.61 0ZM83.97 11.94C82.55 11.94 81.41 10.80 81.41 9.38C81.41 7.96 82.55 6.83 83.97 6.83C85.37 6.83 86.52 7.96 86.52 9.38C86.52 10.80 85.37 11.94 83.97 11.94Z"></path></g><defs data-v-fde0c5aa=""><linearGradient data-v-fde0c5aa="" gradientTransform="rotate(25)" id="ea9b5f66-9357-404c-84e9-a5dcb8e40e72" x1="0%" y1="0%" x2="100%" y2="0%"><stop data-v-fde0c5aa="" offset="0%" stop-color="#FD9245" stop-opacity="1"></stop><stop data-v-fde0c5aa="" offset="100%" stop-color="#06A96B" stop-opacity="1"></stop></linearGradient></defs><g data-v-fde0c5aa="" id="878d4448-a194-418d-892c-e802622a0692" stroke="none" fill="url(#ea9b5f66-9357-404c-84e9-a5dcb8e40e72)" transform="matrix(1.7851351541634262,0,0,1.7851351541634262,91.89384656100849,57.00939193295146)"><path d="M54.6 43.5c3.3 0 6-2.7 6-6V33c0-2.9-2.1-5.4-4.9-5.9 1.3-3.6.6-4.7-.6-6-.7-.8-1.5-1.6-1.5-4.1h-1.5c0 3.1 1.1 4.3 1.9 5.1.9.9 1.4 1.5.1 4.9-3 .3-5.4 2.8-5.4 5.9v4.5c0 3.5 2.7 6.1 5.9 6.1zM50.2 33c0-2.5 2-4.5 4.5-4.5s4.5 2 4.5 4.5v4.5c0 2.5-2 4.5-4.5 4.5s-4.5-2-4.5-4.5V33z"></path><path d="M53.9 30.9h1.5v2.2h-1.5z"></path><path d="M62.5 10.7H42.2V6.4c0-1.5-1.2-2.7-2.8-2.7h-27c-1.5 0-2.8 1.2-2.8 2.7v4.3H2.5c-1.5 0-2.8 1.2-2.8 2.8v37.4c0 1.5 1.2 2.8 2.8 2.8h20.6V60h-3.7v1.5h26.3V60H42v-6.3h20.6c1.5 0 2.8-1.2 2.8-2.8V13.4c-.1-1.5-1.4-2.7-2.9-2.7zM11.1 6.4c0-.7.6-1.3 1.3-1.3h27.1c.7 0 1.3.6 1.3 1.3v35.7H11.1V6.4zm-8.6 5.8h7.1v29.9H6.7v1.5h38.4v-1.5h-2.9V12.2h20.3c.7 0 1.3.6 1.3 1.3v34H1.3v-34c0-.7.5-1.3 1.2-1.3zm37.9 47.7H24.6v-6.3h15.8v6.3zm22.1-7.8h-60c-.7 0-1.3-.6-1.3-1.3v-1.9h62.5v1.9c.1.7-.5 1.3-1.2 1.3z"></path><path d="M13.4 37.3h4.3v1.5h-4.3zM19 37.3h8.3v1.5H19zM28.8 37.3h9.6v1.5h-9.6zM31.8 27.4h1.3v1.5h-1.3zM19.2 27.4h11.2v1.5H19.2zM13.4 27.4h4.4v1.5h-4.4zM34.5 27.4h4v1.5h-4zM13.4 22.4h5.8v1.5h-5.8zM30.2 22.4h8.2v1.5h-8.2zM20.5 22.4H22v1.5h-1.5zM23.7 22.4h1.5v1.5h-1.5zM26.9 22.4h1.5v1.5h-1.5zM31.4 32.4h3.4v1.5h-3.4zM36.1 32.4h2.3v1.5h-2.3zM13.4 32.4h9.4v1.5h-9.4zM25.4 32.4h1.5v1.5h-1.5zM28.6 32.4h1.5v1.5h-1.5zM29.9 16.8l4.6-3.3-4.5-3.3-.9 1.3 2.8 2-2.9 2.1zM22 15.5l-2.9-2.1 2.9-2-.9-1.2-4.6 3.2 4.6 3.3zM27.52 7.9l1.341.675-5.302 10.542-1.34-.674z"></path></g><!----></svg>