<svg data-v-423bf9ae="" xmlns="http://www.w3.org/2000/svg" viewBox="0 0 362.0550635746528 60" class="font"><!----><!----><!----><g data-v-423bf9ae="" id="9f789e10-1938-45f2-b379-42ffcffdbdf9" fill="white" transform="matrix(4.029549682584679,0,0,4.029549682584679,-4.8354616436616595,-10.315647433681256)"><path d="M1.20 13.64L1.20 2.69L2.50 2.69L2.50 7.57L2.50 7.57Q2.75 7.36 3.05 7.12L3.05 7.12L3.05 7.12Q3.35 6.89 3.70 6.70L3.70 6.70L3.70 6.70Q4.05 6.51 4.43 6.38L4.43 6.38L4.43 6.38Q4.81 6.26 5.22 6.26L5.22 6.26L5.22 6.26Q5.71 6.26 6.11 6.45L6.11 6.45L6.11 6.45Q6.51 6.64 6.80 6.98L6.80 6.98L6.80 6.98Q7.09 7.31 7.24 7.79L7.24 7.79L7.24 7.79Q7.40 8.26 7.40 8.85L7.40 8.85L7.40 13.64L6.10 13.64L6.10 8.96L6.10 8.96Q6.10 8.56 5.98 8.26L5.98 8.26L5.98 8.26Q5.87 7.96 5.68 7.76L5.68 7.76L5.68 7.76Q5.48 7.55 5.21 7.45L5.21 7.45L5.21 7.45Q4.94 7.36 4.62 7.36L4.62 7.36L4.62 7.36Q4.05 7.36 3.53 7.66L3.53 7.66L3.53 7.66Q3.02 7.96 2.50 8.45L2.50 8.45L2.50 13.64L1.20 13.64ZM12.74 13.78L12.74 13.78L12.74 13.78Q11.94 13.78 11.31 13.49L11.31 13.49L11.31 13.49Q10.68 13.21 10.24 12.72L10.24 12.72L10.24 12.72Q9.81 12.24 9.58 11.59L9.58 11.59L9.58 11.59Q9.35 10.94 9.35 10.23L9.35 10.23L9.35 10.23Q9.35 9.41 9.64 8.69L9.64 8.69L9.64 8.69Q9.93 7.96 10.45 7.42L10.45 7.42L10.45 7.42Q10.96 6.88 11.68 6.57L11.68 6.57L11.68 6.57Q12.39 6.26 13.22 6.26L13.22 6.26L13.22 6.26Q14.03 6.26 14.67 6.55L14.67 6.55L14.67 6.55Q15.31 6.84 15.74 7.33L15.74 7.33L15.74 7.33Q16.17 7.83 16.40 8.47L16.40 8.47L16.40 8.47Q16.63 9.12 16.63 9.83L16.63 9.83L16.63 9.83Q16.63 10.66 16.33 11.38L16.33 11.38L16.33 11.38Q16.04 12.10 15.52 12.63L15.52 12.63L15.52 12.63Q15.00 13.17 14.29 13.47L14.29 13.47L14.29 13.47Q13.58 13.78 12.74 13.78ZM13.03 12.74L13.03 12.74L13.03 12.74Q13.53 12.74 13.94 12.54L13.94 12.54L13.94 12.54Q14.34 12.34 14.63 11.99L14.63 11.99L14.63 11.99Q14.92 11.64 15.08 11.17L15.08 11.17L15.08 11.17Q15.24 10.69 15.24 10.14L15.24 10.14L15.24 10.14Q15.24 9.60 15.09 9.10L15.09 9.10L15.09 9.10Q14.93 8.59 14.63 8.19L14.63 8.19L14.63 8.19Q14.33 7.79 13.90 7.54L13.90 7.54L13.90 7.54Q13.47 7.30 12.93 7.30L12.93 7.30L12.93 7.30Q12.43 7.30 12.03 7.50L12.03 7.50L12.03 7.50Q11.62 7.70 11.33 8.06L11.33 8.06L11.33 8.06Q11.04 8.41 10.88 8.89L10.88 8.89L10.88 8.89Q10.72 9.37 10.72 9.91L10.72 9.91L10.72 9.91Q10.72 10.45 10.88 10.96L10.88 10.96L10.88 10.96Q11.03 11.47 11.33 11.87L11.33 11.87L11.33 11.87Q11.63 12.26 12.06 12.50L12.06 12.50L12.06 12.50Q12.48 12.74 13.03 12.74ZM19.22 13.64L19.22 7.44L17.75 7.44L17.86 6.70L19.22 6.40L19.22 6.04L19.22 6.04Q19.22 5.34 19.43 4.70L19.43 4.70L19.43 4.70Q19.65 4.07 20.05 3.59L20.05 3.59L20.05 3.59Q20.45 3.12 21.04 2.84L21.04 2.84L21.04 2.84Q21.63 2.56 22.38 2.56L22.38 2.56L22.38 2.56Q22.66 2.56 22.97 2.60L22.97 2.60L22.97 2.60Q23.28 2.64 23.56 2.73L23.56 2.73L23.30 3.79L23.17 3.86L23.17 3.86Q22.94 3.74 22.68 3.67L22.68 3.67L22.68 3.67Q22.42 3.60 22.11 3.60L22.11 3.60L22.11 3.60Q21.68 3.60 21.38 3.76L21.38 3.76L21.38 3.76Q21.08 3.93 20.88 4.22L20.88 4.22L20.88 4.22Q20.69 4.50 20.60 4.89L20.60 4.89L20.60 4.89Q20.51 5.28 20.51 5.73L20.51 5.73L20.51 6.40L22.99 6.40L22.72 7.44L20.51 7.44L20.51 13.64L19.22 13.64ZM25.29 13.64L25.29 7.44L23.82 7.44L23.93 6.70L25.29 6.40L25.29 6.04L25.29 6.04Q25.29 5.34 25.50 4.70L25.50 4.70L25.50 4.70Q25.72 4.07 26.12 3.59L26.12 3.59L26.12 3.59Q26.52 3.12 27.11 2.84L27.11 2.84L27.11 2.84Q27.70 2.56 28.45 2.56L28.45 2.56L28.45 2.56Q28.73 2.56 29.04 2.60L29.04 2.60L29.04 2.60Q29.35 2.64 29.63 2.73L29.63 2.73L29.37 3.79L29.24 3.86L29.24 3.86Q29.01 3.74 28.75 3.67L28.75 3.67L28.75 3.67Q28.49 3.60 28.18 3.60L28.18 3.60L28.18 3.60Q27.75 3.60 27.45 3.76L27.45 3.76L27.45 3.76Q27.15 3.93 26.95 4.22L26.95 4.22L26.95 4.22Q26.76 4.50 26.67 4.89L26.67 4.89L26.67 4.89Q26.58 5.28 26.58 5.73L26.58 5.73L26.58 6.40L29.06 6.40L28.79 7.44L26.58 7.44L26.58 13.64L25.29 13.64ZM30.51 13.64L30.51 6.40L31.52 6.40L31.73 7.66L31.73 7.66Q31.96 7.43 32.27 7.18L32.27 7.18L32.27 7.18Q32.58 6.94 32.94 6.73L32.94 6.73L32.94 6.73Q33.30 6.53 33.70 6.40L33.70 6.40L33.70 6.40Q34.10 6.26 34.53 6.26L34.53 6.26L34.53 6.26Q35.03 6.26 35.43 6.45L35.43 6.45L35.43 6.45Q35.83 6.64 36.11 6.99L36.11 6.99L36.11 6.99Q36.39 7.33 36.55 7.81L36.55 7.81L36.55 7.81Q36.70 8.29 36.70 8.85L36.70 8.85L36.70 13.64L35.40 13.64L35.40 8.97L35.40 8.97Q35.40 8.57 35.29 8.27L35.29 8.27L35.29 8.27Q35.18 7.96 34.98 7.76L34.98 7.76L34.98 7.76Q34.78 7.56 34.51 7.46L34.51 7.46L34.51 7.46Q34.23 7.36 33.91 7.36L33.91 7.36L33.91 7.36Q33.35 7.36 32.84 7.66L32.84 7.66L32.84 7.66Q32.33 7.96 31.81 8.45L31.81 8.45L31.81 13.64L30.51 13.64ZM39.11 11.21L39.11 6.40L40.41 6.40L40.41 10.99L40.41 10.99Q40.41 11.37 40.51 11.68L40.51 11.68L40.51 11.68Q40.62 11.99 40.81 12.22L40.81 12.22L40.81 12.22Q41.00 12.44 41.26 12.56L41.26 12.56L41.26 12.56Q41.52 12.69 41.84 12.69L41.84 12.69L41.84 12.69Q42.12 12.69 42.39 12.59L42.39 12.59L42.39 12.59Q42.66 12.50 42.91 12.34L42.91 12.34L42.91 12.34Q43.16 12.19 43.38 11.99L43.38 11.99L43.38 11.99Q43.61 11.79 43.80 11.57L43.80 11.57L43.80 6.40L45.10 6.40L45.10 13.64L44.08 13.64L43.87 12.40L43.87 12.40Q43.61 12.63 43.33 12.88L43.33 12.88L43.33 12.88Q43.04 13.12 42.71 13.32L42.71 13.32L42.71 13.32Q42.39 13.52 42.03 13.65L42.03 13.65L42.03 13.65Q41.67 13.78 41.27 13.78L41.27 13.78L41.27 13.78Q40.80 13.78 40.41 13.60L40.41 13.60L40.41 13.60Q40.02 13.41 39.73 13.07L39.73 13.07L39.73 13.07Q39.44 12.74 39.27 12.26L39.27 12.26L39.27 12.26Q39.11 11.79 39.11 11.21L39.11 11.21ZM47.50 13.64L47.50 6.40L48.51 6.40L48.72 7.66L48.72 7.66Q48.96 7.43 49.27 7.18L49.27 7.18L49.27 7.18Q49.57 6.94 49.93 6.73L49.93 6.73L49.93 6.73Q50.29 6.53 50.70 6.40L50.70 6.40L50.70 6.40Q51.10 6.26 51.52 6.26L51.52 6.26L51.52 6.26Q52.02 6.26 52.42 6.45L52.42 6.45L52.42 6.45Q52.82 6.64 53.10 6.99L53.10 6.99L53.10 6.99Q53.39 7.33 53.54 7.81L53.54 7.81L53.54 7.81Q53.70 8.29 53.70 8.85L53.70 8.85L53.70 13.64L52.40 13.64L52.40 8.97L52.40 8.97Q52.40 8.57 52.28 8.27L52.28 8.27L52.28 8.27Q52.17 7.96 51.97 7.76L51.97 7.76L51.97 7.76Q51.78 7.56 51.50 7.46L51.50 7.46L51.50 7.46Q51.23 7.36 50.91 7.36L50.91 7.36L50.91 7.36Q50.34 7.36 49.83 7.66L49.83 7.66L49.83 7.66Q49.33 7.96 48.80 8.45L48.80 8.45L48.80 13.64L47.50 13.64ZM59.69 14.05L58.00 14.05L58.00 14.05Q57.83 14.14 57.62 14.27L57.62 14.27L57.62 14.27Q57.42 14.40 57.25 14.56L57.25 14.56L57.25 14.56Q57.08 14.72 56.96 14.92L56.96 14.92L56.96 14.92Q56.85 15.11 56.85 15.33L56.85 15.33L56.85 15.33Q56.85 15.54 56.98 15.74L56.98 15.74L56.98 15.74Q57.11 15.93 57.37 16.08L57.37 16.08L57.37 16.08Q57.63 16.22 58.00 16.31L58.00 16.31L58.00 16.31Q58.38 16.39 58.86 16.39L58.86 16.39L58.86 16.39Q59.42 16.39 59.86 16.28L59.86 16.28L59.86 16.28Q60.29 16.17 60.59 15.98L60.59 15.98L60.59 15.98Q60.89 15.79 61.05 15.54L61.05 15.54L61.05 15.54Q61.21 15.29 61.21 15.01L61.21 15.01L61.21 15.01Q61.21 14.76 61.09 14.58L61.09 14.58L61.09 14.58Q60.96 14.40 60.75 14.28L60.75 14.28L60.75 14.28Q60.55 14.16 60.27 14.11L60.27 14.11L60.27 14.11Q59.99 14.05 59.69 14.05L59.69 14.05ZM57.07 13.92L57.07 13.92L57.07 13.92Q56.85 13.85 56.67 13.75L56.67 13.75L56.67 13.75Q56.49 13.64 56.35 13.52L56.35 13.52L56.35 13.52Q56.21 13.39 56.13 13.23L56.13 13.23L56.13 13.23Q56.05 13.07 56.05 12.89L56.05 12.89L56.05 12.89Q56.05 12.66 56.17 12.46L56.17 12.46L56.17 12.46Q56.28 12.26 56.46 12.07L56.46 12.07L56.46 12.07Q56.64 11.88 56.87 11.71L56.87 11.71L56.87 11.71Q57.10 11.55 57.34 11.39L57.34 11.39L57.34 11.39Q56.58 11.02 56.23 10.42L56.23 10.42L56.23 10.42Q55.88 9.82 55.88 9.11L55.88 9.11L55.88 9.11Q55.88 8.67 56.00 8.29L56.00 8.29L56.00 8.29Q56.13 7.91 56.36 7.59L56.36 7.59L56.36 7.59Q56.58 7.27 56.88 7.03L56.88 7.03L56.88 7.03Q57.18 6.78 57.53 6.61L57.53 6.61L57.53 6.61Q57.88 6.44 58.26 6.35L58.26 6.35L58.26 6.35Q58.64 6.26 59.01 6.26L59.01 6.26L59.01 6.26Q59.47 6.26 59.89 6.38L59.89 6.38L59.89 6.38Q60.31 6.49 60.60 6.68L60.60 6.68L60.60 6.68Q60.71 6.62 60.87 6.56L60.87 6.56L60.87 6.56Q61.03 6.51 61.21 6.47L61.21 6.47L61.21 6.47Q61.39 6.44 61.57 6.42L61.57 6.42L61.57 6.42Q61.75 6.40 61.91 6.40L61.91 6.40L63.14 6.40L62.86 7.42L61.25 7.42L61.25 7.42Q61.30 7.45 61.39 7.58L61.39 7.58L61.39 7.58Q61.48 7.70 61.57 7.91L61.57 7.91L61.57 7.91Q61.67 8.11 61.74 8.37L61.74 8.37L61.74 8.37Q61.81 8.64 61.81 8.94L61.81 8.94L61.81 8.94Q61.81 9.50 61.55 9.98L61.55 9.98L61.55 9.98Q61.28 10.47 60.86 10.83L60.86 10.83L60.86 10.83Q60.43 11.20 59.88 11.41L59.88 11.41L59.88 11.41Q59.33 11.62 58.75 11.62L58.75 11.62L58.75 11.62Q58.60 11.62 58.45 11.61L58.45 11.61L58.45 11.61Q58.30 11.59 58.13 11.57L58.13 11.57L58.13 11.57Q58.01 11.65 57.87 11.74L57.87 11.74L57.87 11.74Q57.73 11.84 57.62 11.95L57.62 11.95L57.62 11.95Q57.50 12.07 57.43 12.19L57.43 12.19L57.43 12.19Q57.35 12.32 57.35 12.46L57.35 12.46L57.35 12.46Q57.35 12.67 57.56 12.81L57.56 12.81L57.56 12.81Q57.76 12.95 58.11 12.95L58.11 12.95L60.04 12.95L60.04 12.95Q60.53 12.95 60.97 13.07L60.97 13.07L60.97 13.07Q61.41 13.20 61.73 13.44L61.73 13.44L61.73 13.44Q62.06 13.67 62.25 14L62.25 14L62.25 14Q62.44 14.33 62.44 14.72L62.44 14.72L62.44 14.72Q62.44 15.19 62.17 15.67L62.17 15.67L62.17 15.67Q61.91 16.15 61.40 16.55L61.40 16.55L61.40 16.55Q60.89 16.95 60.16 17.20L60.16 17.20L60.16 17.20Q59.42 17.45 58.48 17.45L58.48 17.45L58.48 17.45Q57.86 17.45 57.32 17.33L57.32 17.33L57.32 17.33Q56.79 17.21 56.39 17.00L56.39 17.00L56.39 17.00Q56 16.79 55.77 16.49L55.77 16.49L55.77 16.49Q55.55 16.19 55.55 15.82L55.55 15.82L55.55 15.82Q55.55 15.59 55.63 15.38L55.63 15.38L55.63 15.38Q55.72 15.17 55.85 14.98L55.85 14.98L55.85 14.98Q55.99 14.80 56.15 14.64L56.15 14.64L56.15 14.64Q56.32 14.47 56.49 14.34L56.49 14.34L56.49 14.34Q56.66 14.21 56.81 14.10L56.81 14.10L56.81 14.10Q56.96 13.99 57.07 13.92ZM57.11 8.90L57.11 8.90L57.11 8.90Q57.11 9.27 57.24 9.59L57.24 9.59L57.24 9.59Q57.37 9.91 57.60 10.15L57.60 10.15L57.60 10.15Q57.83 10.38 58.15 10.52L58.15 10.52L58.15 10.52Q58.47 10.65 58.85 10.65L58.85 10.65L58.85 10.65Q59.21 10.65 59.53 10.53L59.53 10.53L59.53 10.53Q59.84 10.40 60.08 10.19L60.08 10.19L60.08 10.19Q60.31 9.97 60.45 9.66L60.45 9.66L60.45 9.66Q60.58 9.34 60.58 8.96L60.58 8.96L60.58 8.96Q60.58 8.59 60.45 8.27L60.45 8.27L60.45 8.27Q60.32 7.96 60.09 7.73L60.09 7.73L60.09 7.73Q59.86 7.50 59.53 7.37L59.53 7.37L59.53 7.37Q59.21 7.23 58.83 7.23L58.83 7.23L58.83 7.23Q58.47 7.23 58.16 7.35L58.16 7.35L58.16 7.35Q57.85 7.47 57.61 7.69L57.61 7.69L57.61 7.69Q57.37 7.90 57.24 8.21L57.24 8.21L57.24 8.21Q57.11 8.52 57.11 8.90ZM64.54 13.64L64.54 2.69L65.84 2.69L65.84 13.64L64.54 13.64ZM72.16 12.56L72.16 12.56L72.16 12.56Q71.99 12.71 71.75 12.92L71.75 12.92L71.75 12.92Q71.50 13.13 71.20 13.32L71.20 13.32L71.20 13.32Q70.90 13.51 70.54 13.64L70.54 13.64L70.54 13.64Q70.18 13.78 69.77 13.78L69.77 13.78L69.77 13.78Q69.41 13.78 69.07 13.65L69.07 13.65L69.07 13.65Q68.72 13.53 68.46 13.28L68.46 13.28L68.46 13.28Q68.19 13.03 68.03 12.66L68.03 12.66L68.03 12.66Q67.87 12.29 67.87 11.81L67.87 11.81L67.87 11.81Q67.87 11.52 67.94 11.22L67.94 11.22L67.94 11.22Q68.01 10.92 68.18 10.64L68.18 10.64L68.18 10.64Q68.35 10.36 68.63 10.12L68.63 10.12L68.63 10.12Q68.91 9.88 69.31 9.70L69.31 9.70L69.31 9.70Q69.72 9.52 70.27 9.41L70.27 9.41L70.27 9.41Q70.83 9.31 71.54 9.31L71.54 9.31L72.16 9.31L72.16 8.68L72.16 8.68Q72.16 8.37 72.05 8.11L72.05 8.11L72.05 8.11Q71.94 7.86 71.75 7.68L71.75 7.68L71.75 7.68Q71.55 7.50 71.28 7.40L71.28 7.40L71.28 7.40Q71.01 7.30 70.68 7.30L70.68 7.30L70.68 7.30Q70.44 7.30 70.16 7.36L70.16 7.36L70.16 7.36Q69.88 7.41 69.61 7.51L69.61 7.51L69.61 7.51Q69.33 7.62 69.08 7.75L69.08 7.75L69.08 7.75Q68.82 7.89 68.63 8.05L68.63 8.05L68.51 7.98L68.24 6.99L68.24 6.99Q68.63 6.77 69.00 6.63L69.00 6.63L69.00 6.63Q69.37 6.49 69.71 6.41L69.71 6.41L69.71 6.41Q70.05 6.32 70.36 6.29L70.36 6.29L70.36 6.29Q70.66 6.26 70.94 6.26L70.94 6.26L70.94 6.26Q72.22 6.26 72.84 6.79L72.84 6.79L72.84 6.79Q73.46 7.32 73.46 8.38L73.46 8.38L73.46 11.95L73.46 11.95Q73.46 12.04 73.47 12.16L73.47 12.16L73.47 12.16Q73.49 12.29 73.54 12.41L73.54 12.41L73.54 12.41Q73.59 12.52 73.69 12.61L73.69 12.61L73.69 12.61Q73.79 12.69 73.96 12.69L73.96 12.69L73.96 12.69Q74.05 12.69 74.21 12.66L74.21 12.66L74.21 12.66Q74.37 12.63 74.53 12.55L74.53 12.55L74.53 13.28L74.53 13.28Q74.20 13.50 73.87 13.64L73.87 13.64L73.87 13.64Q73.53 13.78 73.23 13.78L73.23 13.78L73.23 13.78Q72.95 13.78 72.77 13.67L72.77 13.67L72.77 13.67Q72.58 13.56 72.46 13.38L72.46 13.38L72.46 13.38Q72.34 13.20 72.28 12.98L72.28 12.98L72.28 12.98Q72.21 12.77 72.16 12.56ZM72.16 11.69L72.16 10.10L71.64 10.10L71.64 10.10Q70.84 10.10 70.37 10.22L70.37 10.22L70.37 10.22Q69.89 10.33 69.64 10.52L69.64 10.52L69.64 10.52Q69.39 10.71 69.31 10.95L69.31 10.95L69.31 10.95Q69.23 11.20 69.23 11.46L69.23 11.46L69.23 11.46Q69.23 11.75 69.32 11.98L69.32 11.98L69.32 11.98Q69.40 12.20 69.55 12.36L69.55 12.36L69.55 12.36Q69.69 12.52 69.90 12.61L69.90 12.61L69.90 12.61Q70.10 12.69 70.34 12.69L70.34 12.69L70.34 12.69Q70.53 12.69 70.72 12.64L70.72 12.64L70.72 12.64Q70.92 12.60 71.14 12.49L71.14 12.49L71.14 12.49Q71.36 12.37 71.61 12.18L71.61 12.18L71.61 12.18Q71.86 11.99 72.16 11.69L72.16 11.69ZM76.10 13.64L76.10 6.40L77.12 6.40L77.32 7.66L77.32 7.66Q77.56 7.43 77.87 7.18L77.87 7.18L77.87 7.18Q78.18 6.94 78.53 6.73L78.53 6.73L78.53 6.73Q78.89 6.53 79.30 6.40L79.30 6.40L79.30 6.40Q79.70 6.26 80.12 6.26L80.12 6.26L80.12 6.26Q80.62 6.26 81.02 6.45L81.02 6.45L81.02 6.45Q81.42 6.64 81.71 6.99L81.71 6.99L81.71 6.99Q81.99 7.33 82.14 7.81L82.14 7.81L82.14 7.81Q82.30 8.29 82.30 8.85L82.30 8.85L82.30 13.64L81.00 13.64L81.00 8.97L81.00 8.97Q81.00 8.57 80.89 8.27L80.89 8.27L80.89 8.27Q80.77 7.96 80.58 7.76L80.58 7.76L80.58 7.76Q80.38 7.56 80.10 7.46L80.10 7.46L80.10 7.46Q79.83 7.36 79.51 7.36L79.51 7.36L79.51 7.36Q78.94 7.36 78.44 7.66L78.44 7.66L78.44 7.66Q77.93 7.96 77.40 8.45L77.40 8.45L77.40 13.64L76.10 13.64ZM89.75 11.58L89.75 7.64L89.75 7.64Q89.24 7.42 88.84 7.36L88.84 7.36L88.84 7.36Q88.44 7.30 88.18 7.30L88.18 7.30L88.18 7.30Q87.57 7.30 87.09 7.50L87.09 7.50L87.09 7.50Q86.62 7.70 86.29 8.07L86.29 8.07L86.29 8.07Q85.96 8.43 85.79 8.93L85.79 8.93L85.79 8.93Q85.62 9.44 85.62 10.05L85.62 10.05L85.62 10.05Q85.62 10.58 85.76 11.06L85.76 11.06L85.76 11.06Q85.91 11.54 86.17 11.90L86.17 11.90L86.17 11.90Q86.44 12.26 86.82 12.48L86.82 12.48L86.82 12.48Q87.19 12.69 87.66 12.69L87.66 12.69L87.66 12.69Q88.21 12.69 88.73 12.39L88.73 12.39L88.73 12.39Q89.26 12.09 89.75 11.58L89.75 11.58ZM89.75 6.44L89.75 2.69L91.05 2.69L91.05 13.64L90.04 13.64L89.83 12.39L89.83 12.39Q89.60 12.61 89.31 12.85L89.31 12.85L89.31 12.85Q89.02 13.09 88.68 13.30L88.68 13.30L88.68 13.30Q88.33 13.51 87.92 13.64L87.92 13.64L87.92 13.64Q87.51 13.78 87.06 13.78L87.06 13.78L87.06 13.78Q86.40 13.78 85.88 13.49L85.88 13.49L85.88 13.49Q85.36 13.20 85.00 12.72L85.00 12.72L85.00 12.72Q84.64 12.24 84.44 11.61L84.44 11.61L84.44 11.61Q84.25 10.99 84.25 10.32L84.25 10.32L84.25 10.32Q84.25 9.44 84.57 8.70L84.57 8.70L84.57 8.70Q84.89 7.95 85.44 7.41L85.44 7.41L85.44 7.41Q86.00 6.87 86.74 6.57L86.74 6.57L86.74 6.57Q87.49 6.26 88.34 6.26L88.34 6.26L88.34 6.26Q88.75 6.26 89.11 6.32L89.11 6.32L89.11 6.32Q89.47 6.38 89.75 6.44L89.75 6.44Z"></path></g><!----><!----></svg>