<svg data-v-fde0c5aa="" xmlns="http://www.w3.org/2000/svg" viewBox="0 0 300 300" class="iconAbove"><!----><defs data-v-fde0c5aa=""><linearGradient data-v-fde0c5aa="" gradientTransform="rotate(25)" id="1f68c89d-f7c4-4569-a4cc-520d9dabb7ee" x1="0%" y1="0%" x2="100%" y2="0%"><stop data-v-fde0c5aa="" offset="0%" stop-color="#0978A6" stop-opacity="1"></stop><stop data-v-fde0c5aa="" offset="100%" stop-color="#FB9447" stop-opacity="1"></stop></linearGradient></defs><rect data-v-fde0c5aa="" fill="url(#1f68c89d-f7c4-4569-a4cc-520d9dabb7ee)" x="0" y="0" width="300px" height="300px" class="logo-background-square"></rect><defs data-v-fde0c5aa=""><!----></defs><g data-v-fde0c5aa="" id="e4d9d1a7-6e02-4f53-8487-2b11c6d1662a" fill="#ffffff" transform="matrix(4.922027523776387,0,0,4.922027523776387,35.11987919102296,177.3099413557657)"><path d="M3.75 14.71L2.79 14.71L3.78 7.56L3.78 7.56Q3.79 7.49 3.79 7.43L3.79 7.43L3.79 7.43Q3.79 7.38 3.79 7.32L3.79 7.32L3.79 7.32Q3.79 6.86 3.32 6.86L3.32 6.86L3.32 6.86Q3.11 6.86 2.88 6.99L2.88 6.99L2.88 6.99Q2.66 7.11 2.51 7.39L2.51 7.39L1.48 14.71L0.52 14.71L2.13 3.19L3.09 3.19L2.63 6.54L2.63 6.54Q2.86 6.26 3.18 6.08L3.18 6.08L3.18 6.08Q3.50 5.91 3.86 5.91L3.86 5.91L3.86 5.91Q4.80 5.91 4.80 6.99L4.80 6.99L4.80 6.99Q4.80 7.21 4.76 7.50L4.76 7.50L3.75 14.71ZM4.89 13.12L5.64 7.64L5.64 7.64Q5.77 6.80 6.22 6.36L6.22 6.36L6.22 6.36Q6.68 5.91 7.49 5.91L7.49 5.91L7.49 5.91Q8.86 5.91 8.86 7.22L8.86 7.22L8.86 7.22Q8.86 7.32 8.86 7.43L8.86 7.43L8.86 7.43Q8.85 7.53 8.83 7.64L8.83 7.64L8.08 13.12L8.08 13.12Q7.95 13.96 7.49 14.40L7.49 14.40L7.49 14.40Q7.03 14.84 6.23 14.84L6.23 14.84L6.23 14.84Q4.84 14.84 4.84 13.55L4.84 13.55L4.84 13.55Q4.84 13.36 4.89 13.12L4.89 13.12ZM7.14 13.09L7.90 7.67L7.90 7.67Q7.91 7.60 7.91 7.55L7.91 7.55L7.91 7.55Q7.91 7.49 7.91 7.43L7.91 7.43L7.91 7.43Q7.91 7.18 7.79 7.04L7.79 7.04L7.79 7.04Q7.67 6.90 7.35 6.90L7.35 6.90L7.35 6.90Q6.96 6.90 6.80 7.11L6.80 7.11L6.80 7.11Q6.64 7.31 6.58 7.67L6.58 7.67L5.82 13.12L5.82 13.12Q5.81 13.19 5.80 13.24L5.80 13.24L5.80 13.24Q5.80 13.30 5.80 13.36L5.80 13.36L5.80 13.36Q5.80 13.61 5.92 13.73L5.92 13.73L5.92 13.73Q6.05 13.86 6.37 13.86L6.37 13.86L6.37 13.86Q6.76 13.86 6.92 13.66L6.92 13.66L6.92 13.66Q7.08 13.47 7.14 13.09L7.14 13.09ZM9.80 14.71L8.85 14.71L9.94 6.90L9.52 6.90L9.63 6.05L10.05 6.05L10.23 4.84L10.23 4.84Q10.35 4.03 10.70 3.58L10.70 3.58L10.70 3.58Q11.05 3.12 11.80 3.12L11.80 3.12L11.80 3.12Q11.97 3.12 12.14 3.14L12.14 3.14L12.14 3.14Q12.31 3.16 12.42 3.21L12.42 3.21L12.31 4.03L12.31 4.03Q12.15 3.99 11.96 3.99L11.96 3.99L11.96 3.99Q11.62 3.99 11.43 4.19L11.43 4.19L11.43 4.19Q11.24 4.40 11.17 4.87L11.17 4.87L11.00 6.05L11.98 6.05L11.87 6.90L10.89 6.90L9.80 14.71ZM12.57 14.71L11.62 14.71L12.71 6.90L12.29 6.90L12.40 6.05L12.82 6.05L13.01 4.84L13.01 4.84Q13.12 4.03 13.47 3.58L13.47 3.58L13.47 3.58Q13.82 3.12 14.57 3.12L14.57 3.12L14.57 3.12Q14.74 3.12 14.91 3.14L14.91 3.14L14.91 3.14Q15.08 3.16 15.19 3.21L15.19 3.21L15.08 4.03L15.08 4.03Q14.92 3.99 14.73 3.99L14.73 3.99L14.73 3.99Q14.39 3.99 14.20 4.19L14.20 4.19L14.20 4.19Q14.01 4.40 13.94 4.87L13.94 4.87L13.78 6.05L14.76 6.05L14.64 6.90L13.66 6.90L12.57 14.71ZM17.49 14.71L16.52 14.71L17.51 7.56L17.51 7.56Q17.53 7.49 17.53 7.43L17.53 7.43L17.53 7.43Q17.53 7.38 17.53 7.32L17.53 7.32L17.53 7.32Q17.53 6.86 17.05 6.86L17.05 6.86L17.05 6.86Q16.84 6.86 16.62 6.99L16.62 6.99L16.62 6.99Q16.39 7.11 16.24 7.39L16.24 7.39L15.22 14.71L14.25 14.71L15.46 6.05L16.27 6.05L16.27 6.05Q16.27 6.36 16.23 6.71L16.23 6.71L16.23 6.71Q16.46 6.34 16.82 6.13L16.82 6.13L16.82 6.13Q17.18 5.91 17.58 5.91L17.58 5.91L17.58 5.91Q18.54 5.91 18.54 7L18.54 7L18.54 7Q18.54 7.24 18.49 7.50L18.49 7.50L17.49 14.71ZM21.64 14.71L20.82 14.71L20.82 14.71Q20.82 14.56 20.83 14.41L20.83 14.41L20.83 14.41Q20.85 14.25 20.87 14.08L20.87 14.08L20.87 14.08Q20.62 14.43 20.29 14.62L20.29 14.62L20.29 14.62Q19.95 14.81 19.54 14.81L19.54 14.81L19.54 14.81Q18.61 14.81 18.61 13.75L18.61 13.75L18.61 13.75Q18.61 13.64 18.61 13.53L18.61 13.53L18.61 13.53Q18.61 13.43 18.63 13.31L18.63 13.31L19.64 6.05L20.61 6.05L19.61 13.16L19.61 13.16Q19.60 13.23 19.60 13.29L19.60 13.29L19.60 13.29Q19.60 13.34 19.60 13.40L19.60 13.40L19.60 13.40Q19.60 13.65 19.70 13.76L19.70 13.76L19.70 13.76Q19.81 13.86 20.05 13.86L20.05 13.86L20.05 13.86Q20.27 13.86 20.50 13.74L20.50 13.74L20.50 13.74Q20.72 13.62 20.86 13.34L20.86 13.34L21.88 6.05L22.85 6.05L21.64 14.71ZM25.91 14.71L24.95 14.71L25.94 7.56L25.94 7.56Q25.96 7.49 25.96 7.43L25.96 7.43L25.96 7.43Q25.96 7.38 25.96 7.32L25.96 7.32L25.96 7.32Q25.96 6.86 25.48 6.86L25.48 6.86L25.48 6.86Q25.27 6.86 25.05 6.99L25.05 6.99L25.05 6.99Q24.82 7.11 24.67 7.39L24.67 7.39L23.65 14.71L22.68 14.71L23.88 6.05L24.70 6.05L24.70 6.05Q24.70 6.36 24.65 6.71L24.65 6.71L24.65 6.71Q24.89 6.34 25.25 6.13L25.25 6.13L25.25 6.13Q25.61 5.91 26.01 5.91L26.01 5.91L26.01 5.91Q26.96 5.91 26.96 7L26.96 7L26.96 7Q26.96 7.24 26.92 7.50L26.92 7.50L25.91 14.71ZM29.11 15.20L29.30 13.76L29.30 13.76Q29.11 14.01 28.80 14.16L28.80 14.16L28.80 14.16Q28.50 14.31 28.14 14.31L28.14 14.31L28.14 14.31Q27.59 14.31 27.32 14.06L27.32 14.06L27.32 14.06Q27.05 13.80 27.05 13.22L27.05 13.22L27.05 13.22Q27.05 13.01 27.09 12.73L27.09 12.73L27.82 7.59L27.82 7.59Q27.93 6.75 28.30 6.36L28.30 6.36L28.30 6.36Q28.67 5.96 29.27 5.96L29.27 5.96L29.27 5.96Q29.72 5.96 29.99 6.15L29.99 6.15L29.99 6.15Q30.25 6.34 30.38 6.71L30.38 6.71L30.49 6.05L31.30 6.05L30.03 15.16L30.03 15.16Q29.92 15.96 29.47 16.38L29.47 16.38L29.47 16.38Q29.02 16.80 28.22 16.80L28.22 16.80L28.22 16.80Q27.45 16.80 27.15 16.49L27.15 16.49L27.15 16.49Q26.84 16.18 26.84 15.60L26.84 15.60L26.84 15.60Q26.84 15.50 26.84 15.39L26.84 15.39L26.84 15.39Q26.84 15.27 26.87 15.16L26.87 15.16L26.92 14.81L27.79 14.81L27.73 15.20L27.73 15.20Q27.72 15.25 27.72 15.39L27.72 15.39L27.72 15.39Q27.72 15.96 28.32 15.96L28.32 15.96L28.32 15.96Q28.99 15.96 29.11 15.20L29.11 15.20ZM29.43 12.82L30.17 7.56L30.17 7.56Q30.10 7.28 29.91 7.13L29.91 7.13L29.91 7.13Q29.72 6.99 29.47 6.99L29.47 6.99L29.47 6.99Q29.11 6.99 28.96 7.16L28.96 7.16L28.96 7.16Q28.81 7.34 28.76 7.64L28.76 7.64L28.06 12.70L28.06 12.70Q28.04 12.77 28.04 12.82L28.04 12.82L28.04 12.82Q28.04 12.87 28.04 12.92L28.04 12.92L28.04 12.92Q28.04 13.16 28.16 13.27L28.16 13.27L28.16 13.27Q28.28 13.38 28.57 13.38L28.57 13.38L28.57 13.38Q28.83 13.38 29.06 13.24L29.06 13.24L29.06 13.24Q29.29 13.10 29.43 12.82L29.43 12.82ZM32.12 14.71L31.15 14.71L32.76 3.19L33.73 3.19L32.12 14.71ZM36.18 14.71L35.29 14.71L35.29 14.71Q35.28 14.67 35.28 14.53L35.28 14.53L35.28 14.53Q35.28 14.46 35.29 14.38L35.29 14.38L35.29 14.38Q35.29 14.29 35.31 14.20L35.31 14.20L35.31 14.20Q35.10 14.50 34.82 14.67L34.82 14.67L34.82 14.67Q34.54 14.84 34.17 14.84L34.17 14.84L34.17 14.84Q33.66 14.84 33.38 14.60L33.38 14.60L33.38 14.60Q33.10 14.35 33.10 13.82L33.10 13.82L33.10 13.82Q33.10 13.73 33.10 13.65L33.10 13.65L33.10 13.65Q33.11 13.57 33.12 13.47L33.12 13.47L33.31 12.19L33.31 12.19Q33.39 11.56 33.62 11.14L33.62 11.14L33.62 11.14Q33.85 10.71 34.20 10.42L34.20 10.42L34.20 10.42Q34.54 10.12 34.97 9.92L34.97 9.92L34.97 9.92Q35.41 9.72 35.91 9.52L35.91 9.52L36.18 7.63L36.18 7.63Q36.19 7.56 36.19 7.51L36.19 7.51L36.19 7.51Q36.19 7.46 36.19 7.41L36.19 7.41L36.19 7.41Q36.19 7.14 36.06 7.01L36.06 7.01L36.06 7.01Q35.94 6.87 35.64 6.87L35.64 6.87L35.64 6.87Q35.27 6.87 35.12 7.07L35.12 7.07L35.12 7.07Q34.97 7.27 34.92 7.63L34.92 7.63L34.65 9.45L33.80 9.45L34.06 7.62L34.06 7.62Q34.19 6.76 34.60 6.34L34.60 6.34L34.60 6.34Q35.01 5.91 35.81 5.91L35.81 5.91L35.81 5.91Q37.13 5.91 37.13 7.20L37.13 7.20L37.13 7.20Q37.13 7.31 37.12 7.41L37.12 7.41L37.12 7.41Q37.11 7.50 37.10 7.62L37.10 7.62L36.23 13.72L36.23 13.72Q36.20 13.94 36.18 14.15L36.18 14.15L36.18 14.15Q36.16 14.35 36.16 14.52L36.16 14.52L36.16 14.52Q36.16 14.67 36.18 14.71L36.18 14.71ZM35.36 13.36L35.80 10.29L35.80 10.29Q35.35 10.44 35.07 10.63L35.07 10.63L35.07 10.63Q34.79 10.81 34.62 11.04L34.62 11.04L34.62 11.04Q34.45 11.27 34.37 11.57L34.37 11.57L34.37 11.57Q34.29 11.87 34.23 12.26L34.23 12.26L34.10 13.19L34.10 13.19Q34.09 13.23 34.09 13.37L34.09 13.37L34.09 13.37Q34.09 13.90 34.66 13.90L34.66 13.90L34.66 13.90Q34.87 13.90 35.06 13.78L35.06 13.78L35.06 13.78Q35.25 13.65 35.36 13.36L35.36 13.36ZM40.36 14.71L39.40 14.71L40.39 7.56L40.39 7.56Q40.40 7.49 40.40 7.43L40.40 7.43L40.40 7.43Q40.40 7.38 40.40 7.32L40.40 7.32L40.40 7.32Q40.40 6.86 39.93 6.86L39.93 6.86L39.93 6.86Q39.72 6.86 39.49 6.99L39.49 6.99L39.49 6.99Q39.27 7.11 39.12 7.39L39.12 7.39L38.09 14.71L37.13 14.71L38.33 6.05L39.14 6.05L39.14 6.05Q39.14 6.36 39.10 6.71L39.10 6.71L39.10 6.71Q39.34 6.34 39.70 6.13L39.70 6.13L39.70 6.13Q40.05 5.91 40.46 5.91L40.46 5.91L40.46 5.91Q41.41 5.91 41.41 7L41.41 7L41.41 7Q41.41 7.24 41.37 7.50L41.37 7.50L40.36 14.71ZM43.81 13.22L44.60 7.46L44.60 7.46Q44.45 6.89 43.93 6.89L43.93 6.89L43.93 6.89Q43.61 6.89 43.45 7.05L43.45 7.05L43.45 7.05Q43.29 7.21 43.23 7.60L43.23 7.60L42.46 13.06L42.46 13.06Q42.45 13.13 42.45 13.18L42.45 13.18L42.45 13.18Q42.45 13.23 42.45 13.29L42.45 13.29L42.45 13.29Q42.45 13.57 42.57 13.68L42.57 13.68L42.57 13.68Q42.69 13.79 42.97 13.79L42.97 13.79L42.97 13.79Q43.48 13.79 43.81 13.22L43.81 13.22ZM44.55 14.71L43.74 14.71L43.74 14.71Q43.74 14.56 43.75 14.40L43.75 14.40L43.75 14.40Q43.76 14.24 43.79 14.07L43.79 14.07L43.79 14.07Q43.60 14.42 43.28 14.62L43.28 14.62L43.28 14.62Q42.97 14.81 42.49 14.81L42.49 14.81L42.49 14.81Q41.44 14.81 41.44 13.65L41.44 13.65L41.44 13.65Q41.44 13.44 41.48 13.19L41.48 13.19L42.28 7.50L42.28 7.50Q42.39 6.65 42.75 6.28L42.75 6.28L42.75 6.28Q43.11 5.91 43.78 5.91L43.78 5.91L43.78 5.91Q44.11 5.91 44.37 6.06L44.37 6.06L44.37 6.06Q44.62 6.22 44.74 6.47L44.74 6.47L45.21 3.19L46.16 3.19L44.55 14.71Z"></path></g><defs data-v-fde0c5aa=""><!----></defs><g data-v-fde0c5aa="" id="e5190539-cccf-48c7-9686-359e74917400" stroke="none" fill="#ffffff" transform="matrix(1.4971562757922787,0,0,1.4971562757922787,450.15256803733155,-341.02627218913494)"><path d="M-165.3 314.6c-4.5-3.3-9.2 2.2-13 3.6.5 1 .3 2.8.4 3.7 3.8-2.8 8.1-5.1 12.6-7.3zM-179.8 316.1c2.5-1.6 5.7-2.7 8.2-4.4-3.6-1.8-7.9 1.5-10.6 3.2 1.4 0 1.4 1.1 2.4 1.2zM-217.7 281.9l-8.1-3.1 8.1-3-3.1-3.1-15.2 6.1 15.2 6.1zM-216.1 269.5l-3.5-7.8 7.8 3.5V261l-15-6.5 6.4 15zM-211.8 292.4l-7.8 3.5 3.5-7.8h-4.3l-6.4 15 15-6.5z"></path><g><path d="M-183.5 275.8l8.1 3-8.1 3.1 3.1 3 15.2-6.1-15.2-6.1zM-185.1 288.1l3.6 7.8-7.9-3.5v4.2l15 6.5-6.3-15zM-189.4 265.2l7.9-3.5-3.6 7.8h4.4l6.3-15-15 6.5z"></path></g><path d="M-161 316.6c-4.8-1.2-13.3 6.6-15.8 8.3-4.5 3-11.9 6.5-18.3 5.9-4.5-.4-7.3-2.2-12.6-2.4 3.5-1.7 9.3-.3 14.5-.6 4.8-.3 12.4-2.2 12.4-6.8-.1-4.6-7.1-4.8-12.8-4.6-4.2.1-8.6.9-11.9.2-2.5-.5-4.5-2-7.2-2.6-6.7-1.5-12.3 1.9-18.1 2.6-3.5.4-6.5-.3-9.7.4-1.9 2.3-2 6.7-2 9.3 0 2-.5 7.9 1.9 9.3 1.7 1 9.2.1 12.8.2 9 .4 14.9 2.6 21.9 5 3.1 1.1 7.1 3.4 10.3 3.6 5.1.5 8.6-3 12.2-5 7.3-4.1 12-7 18.1-12.2 2.6-2 11.1-9 4.3-10.6zM-206.9 272.7l6.6-3.7c1.2-.7 1.6-2.2.9-3.4-.7-1.2-2.2-1.6-3.4-.9l-6.6 3.7c-1.2.7-1.6 2.2-.9 3.4.7 1.2 2.2 1.6 3.4.9zm-3.4 8c.7 1.2 2.2 1.6 3.4.9l15.3-8.8c1.2-.7 1.6-2.2.9-3.4-.7-1.2-2.2-1.6-3.4-.9l-15.3 8.8c-1.1.7-1.5 2.2-.9 3.4zm19.6 6.1c-.7-1.2-2.2-1.6-3.4-.9l-3 1.7v7h-4.4V292.9v-.4c0-.2-.1-.4-.2-.6l-1.9-3.4 12.1-7c1.2-.7 1.6-2.2.9-3.4s-2.2-1.6-3.4-.9l-15.3 8.8c-1.2.7-1.6 2.2-.9 3.4.6 1.1 2 1.5 3.2 1l1.6 2.9v11.3c0 1.6 1.2 2.9 2.7 3.1.7 1 2 1.7 3.5 1.7s2.7-.7 3.5-1.7c1.5-.2 2.8-1.5 2.8-3.1V291l1.2-.7c1.2-.8 1.6-2.3 1-3.5zm-4.7 18.2h-7.5v-2h7.5v2zm0-3h-7.5v-2h7.5v2zm0-3h-7.5v-2h7.5v2z"></path></g><!----></svg>